<svg width="196" height="28" viewBox="0 0 196 28" fill="none" xmlns="http://www.w3.org/2000/svg">
<path d="M0 5.9439L1.93177 0H27.1193L25.1766 5.9439H17.2798L11.6543 23.3723L3.18423 28L10.3169 5.9439H0Z" fill="white"/>
<path d="M15.1145 21.5042L17.7893 13.2676L23.903 9.93481L21.2282 18.1926L15.1145 21.5042Z" fill="white"/>
<path d="M55.2072 3.56614V6.47179H49.3959V21H46.4903V6.47179H40.679V3.56614H55.2072ZM59.56 6.47179V12.2831H56.6544V6.47179H59.56ZM68.277 6.47179H71.1826V12.2831H68.277V6.47179ZM62.4657 12.2831V18.0944H59.56V12.2831H62.4657ZM65.3713 12.2831H68.277V18.0944H65.3713V12.2831ZM62.4657 18.0944H65.3713V23.9056H62.4657V18.0944ZM59.56 26.8113V23.9056H62.4657V26.8113H59.56ZM82.7938 9.37743H76.9825V6.47179H82.7938V9.37743ZM76.9825 18.0944H74.0769V9.37743H76.9825V18.0944ZM76.9825 21V18.0944H82.7938V21H76.9825ZM94.4277 9.37743H88.6164V6.47179H94.4277V9.37743ZM88.6164 18.0944H85.7108V9.37743H88.6164V18.0944ZM94.4277 9.37743H97.3334V18.0944H94.4277V9.37743ZM88.6164 18.0944H94.4277V21H88.6164V18.0944ZM108.956 9.37743H103.145V6.47179H108.956V9.37743ZM103.145 18.0944H100.239V9.37743H103.145V18.0944ZM108.956 9.37743H111.862V18.0944H108.956V9.37743ZM103.145 18.0944H108.956V21H103.145V18.0944ZM123.484 6.47179V9.37743H117.673V21H114.767V6.47179H123.484ZM123.484 9.37743H126.39V21H123.484V9.37743ZM140.912 6.47179V12.2831H149.629V15.1887H140.912V21H138.007V3.56614H149.629V6.47179H140.912ZM155.441 18.0944H152.535V6.47179H155.441V18.0944ZM161.252 6.47179H164.157V21H155.441V18.0944H161.252V6.47179ZM175.78 6.47179V9.37743H169.969V21H167.063V6.47179H175.78ZM175.78 9.37743H178.686V21H175.78V9.37743ZM190.308 0.660498H193.214V18.0944H190.308V9.37743H184.497V6.47179H190.308V0.660498ZM184.497 18.0944H181.591V9.37743H184.497V18.0944ZM184.497 18.0944H190.308V21H184.497V18.0944Z" fill="white"/>
</svg>
