<svg width="413" height="72" viewBox="0 0 413 72" fill="none" xmlns="http://www.w3.org/2000/svg">
<path d="M40.5 8V16H24.5V56H16.5V16H0.5V8H40.5ZM52.4844 16V32H44.4844V16H52.4844ZM76.4844 16H84.4844V32H76.4844V16ZM60.4844 32V48H52.4844V32H60.4844ZM68.4844 32H76.4844V48H68.4844V32ZM60.4844 48H68.4844V64H60.4844V48ZM52.4844 72V64H60.4844V72H52.4844ZM116.453 24H100.453V16H116.453V24ZM100.453 48H92.4531V24H100.453V48ZM100.453 56V48H116.453V56H100.453ZM148.484 24H132.484V16H148.484V24ZM132.484 48H124.484V24H132.484V48ZM148.484 24H156.484V48H148.484V24ZM132.484 48H148.484V56H132.484V48ZM188.484 24H172.484V16H188.484V24ZM172.484 48H164.484V24H172.484V48ZM188.484 24H196.484V48H188.484V24ZM172.484 48H188.484V56H172.484V48ZM228.484 16V24H212.484V56H204.484V16H228.484ZM228.484 24H236.484V56H228.484V24Z" fill="#E85102"/>
<path d="M252.484 48V56H244.484V48H252.484ZM268.5 16V32H292.5V40H268.5V56H260.5V8H292.5V16H268.5ZM308.5 48H300.5V16H308.5V48ZM324.5 16H332.5V56H308.5V48H324.5V16ZM364.5 16V24H348.5V56H340.5V16H364.5ZM364.5 24H372.5V56H364.5V24ZM404.5 -3.8147e-06H412.5V48H404.5V24H388.5V16H404.5V-3.8147e-06ZM388.5 48H380.5V24H388.5V48ZM388.5 48H404.5V56H388.5V48Z" fill="white"/>
</svg>
